# xmcd
#
# Track frame offsets:
#	150
#	16393
#	35898
#	52866
#	67228
#	81899
#	104894
#	127893
#	140760
#	152860
#	173551
#	190392
#	202241
#	215863
#	254420
#	273048
#	291207
#	305373
#	320232
#
# Disc length: 4452 seconds
#
# Revision: 1
# Processed by: cddbd v1.5.2PL0 Copyright (c) Steve Scherf et al.
# Submitted via: audiograbber 1.83.01
#
DISCID=33116213
DTITLE=AA. VV. - Antologia della Canzone Algherese - Vol. 2
DYEAR=2006
DGENRE=Folk algherese
TTITLE0=Pasqual Gallo - Bella minyona
TTITLE1=Antonella Salvietti e Coro Centro Studi Algheresi - Ave Maria
TTITLE2=Pino Piras e Pino Ferraris - Lo Rei Serafì
TTITLE3=Nando Dalerci - Lo gall
TTITLE4=Antonella Salvietti e Coro Centro Studi Algheresi - Alguer la tua marin
TTITLE4=a
TTITLE5=Pasqual Gallo e Coro Centro Studi Algheresi - Bona nit
TTITLE6=Paolo Dessì e Coro Centro Studi Algheresi - Canço de migdia
TTITLE7=Collidora de oliva - M. Dolores Silanos, Nando Dalerci e Bastianino Can
TTITLE7=eo
TTITLE8=Rosanna Ciampelli e Antonio Coronzu - L'embriagoni
TTITLE9=Pino Piras e Pino Ferraris - Viva Sant Pere
TTITLE10=Battista Rondello e Coro Barcellonetta - La balanguera
TTITLE11=Giancarlo Sanna e Gli Indipendenti - La ferramenta
TTITLE12=Pasqual Gallo - La forastera
TTITLE13=Coro Barcellonetta - Lo pescator que se deu de casar
TTITLE14=Pasqual Gallo e Coro Centro Studi Algheresi - Mariner de l'Alguer
TTITLE15=Antonio Avagnina e Coro Barcellonetta - Minyona morena
TTITLE16=Pino Piras e Pino Ferraris - Quatre quilons
TTITLE17=Maria Dolores Silanos, Nando Dalerci e Bastianino Caneo - Tornaran
TTITLE18=Coro Centro Studi Algheresi - Presentaciò
EXTD=
EXTT0=
EXTT1=
EXTT2=
EXTT3=
EXTT4=
EXTT5=
EXTT6=
EXTT7=
EXTT8=
EXTT9=
EXTT10=
EXTT11=
EXTT12=
EXTT13=
EXTT14=
EXTT15=
EXTT16=
EXTT17=
EXTT18=
PLAYORDER=
